<mxfile host="app.diagrams.net" modified="2024-01-22T11:10:53.135Z" agent="Mozilla/5.0 (Windows NT 10.0; Win64; x64) AppleWebKit/537.36 (KHTML, like Gecko) Chrome/120.0.0.0 Safari/537.36 Edg/120.0.0.0" version="22.1.21" etag="bT5A-8kkys_atYeWZL4F" type="github">
  <diagram name="第 1 页" id="D4S6eI64Nuykc70r9zha">
    <mxGraphModel>
      <root>
        <mxCell id="0" />
        <mxCell id="1" parent="0" />
      </root>
    </mxGraphModel>
  </diagram>
</mxfile>
